<?xml version="1.0" standalone="no"?>
<!DOCTYPE svg PUBLIC "-//W3C//DTD SVG 20010904//EN"
 "http://www.w3.org/TR/2001/REC-SVG-20010904/DTD/svg10.dtd">
<svg version="1.0" xmlns="http://www.w3.org/2000/svg"
 width="700.000000pt" height="700.000000pt" viewBox="0 0 700.000000 700.000000"
 preserveAspectRatio="xMidYMid meet">
<metadata>
Created by potrace 1.14, written by Peter Selinger 2001-2017
</metadata>
<g transform="translate(0.000000,700.000000) scale(0.100000,-0.100000)"
fill="#000000" stroke="none">
<path d="M2148 6583 c-41 -48 -55 -141 -28 -193 6 -14 242 -256 524 -537 l511
-513 -1041 0 c-1142 0 -1128 1 -1296 -60 -249 -90 -403 -285 -438 -555 -7 -54
-10 -672 -8 -1905 3 -1697 5 -1829 21 -1889 46 -168 112 -286 215 -383 77 -72
161 -118 277 -150 l80 -23 2475 -3 c1824 -2 2500 0 2570 8 310 38 506 219 597
551 16 60 18 192 21 1884 2 1275 0 1845 -8 1904 -37 279 -185 470 -438 561
-168 61 -154 60 -1296 60 l-1041 0 511 513 c282 281 518 523 524 537 17 31 16
119 0 150 -30 58 -34 60 -164 60 l-121 0 -547 -547 -548 -548 -548 548 -547
547 -121 0 c-103 0 -123 -3 -136 -17z m1902 -1803 c654 -29 1040 -96 1291
-226 353 -182 518 -600 549 -1387 20 -513 -22 -956 -121 -1264 -179 -559 -513
-721 -1609 -784 -252 -14 -1069 -14 -1320 0 -1096 64 -1430 226 -1609 784 -99
309 -142 767 -121 1272 38 900 237 1294 731 1455 244 79 699 139 1159 153 247
7 848 6 1050 -3z m-2934 -3505 c178 -74 227 -311 92 -447 -51 -50 -102 -72
-186 -76 -63 -4 -79 -1 -127 23 -261 127 -172 514 118 515 37 0 83 -7 103 -15z
m4992 -11 c203 -101 202 -389 -3 -489 -48 -24 -64 -27 -127 -23 -84 4 -135 26
-186 76 -134 135 -87 370 90 447 18 8 65 14 104 15 56 0 81 -5 122 -26z"/>
</g>
</svg>
