<svg viewBox="0 0 24 24" xmlns="http://www.w3.org/2000/svg"><g fill="none"><path d="m0 0h24v24h-24z"/><path d="m20 15c.5523 0 1 .4477 1 1v4c0 1.1046-.8954 2-2 2h-14c-1.10457 0-2-.8954-2-2v-4c0-.5523.44772-1 1-1s1 .4477 1 1v4h14v-4c0-.5523.4477-1 1-1zm-7.1161-11.52561 4.0658 4.06587c.3906.39052.3906 1.02369 0 1.41421-.3905.39052-1.0236.39052-1.4142 0l-2.5355-2.53553v9.58106c0 .5523-.4477 1-1 1s-1-.4477-1-1v-9.58106l-2.53553 2.53553c-.39053.39052-1.02369.39052-1.41422 0-.39052-.39052-.39052-1.02369 0-1.41421l4.06585-4.06587c.4882-.48815 1.2796-.48815 1.7678 0z" fill="currentColor"/></g></svg>
