<?xml version="1.0" encoding="utf-8"?>
<!-- Generator: Adobe Illustrator 16.0.0, SVG Export Plug-In . SVG Version: 6.00 Build 0)  -->
<!DOCTYPE svg PUBLIC "-//W3C//DTD SVG 1.1//EN" "http://www.w3.org/Graphics/SVG/1.1/DTD/svg11.dtd">
<svg version="1.1" id="Layer_1" xmlns="http://www.w3.org/2000/svg" xmlns:xlink="http://www.w3.org/1999/xlink" x="0px" y="0px"
	 width="1000px" height="211.938px" viewBox="0 0 1000 211.938" enable-background="new 0 0 1000 211.938" xml:space="preserve">
<g>
	<polygon points="944.92,198.664 947.145,198.664 947.145,204.582 948.261,204.582 948.261,198.664 950.441,198.664 
		950.441,197.664 944.92,197.664 	"/>
	<polygon points="957.025,197.657 954.891,202.967 952.711,197.657 951.063,197.657 951.063,204.582 952.166,204.582 
		952.166,198.863 952.205,198.863 954.539,204.582 955.191,204.582 957.533,198.863 957.559,198.863 957.559,204.582 
		958.668,204.582 958.668,197.657 	"/>
	<path fill="#010101" d="M941.752,7.399l-32.611,116.026L880.023,7.399h-60.979l-29.617,112.774L759.561,7.399h-70.941l8.617,27.489
		C677.705,13.484,648.352,0,612.713,0c-56.849,0-97.456,34.004-108.023,79.772V7.399h-61.234v92.942l-11.201-15.395l-57.74-77.548
		h-44.506h-11.994h-66.329l-24.472,38.19l-24.552-38.19h-77.864l0.013,0.026H0v197.08h68.673v-64.121h75.456V86.71H68.673V62.947
		h91.849l27.841,43.281l-62.981,98.303h77.543l24.354-37.786l24.301,37.786h77.82l-63.158-98.227l51.773-80.297v126.74
		l33.288,51.783h27.938v-92.641l11.451,15.689l57.991,76.951h56.008v-73.033c10.567,45.775,51.175,80.439,108.023,80.439
		c62.39,0,105.523-42.063,110.301-94.706l27.34,87.3h59.484l33.105-108.338l30.848,108.338h63.973L1000,7.399H941.752z
		 M647.807,108.332c0,24.564-12.696,45.877-35.094,45.877c-22.646,0-35.1-21.313-35.1-45.877v-5.034
		c0-24.564,12.453-46.179,35.1-46.179c22.397,0,35.094,21.614,35.094,46.179V108.332z"/>
</g>
</svg>
