<svg viewBox="0 0 1000 1001.0101" xmlns="http://www.w3.org/2000/svg"><path d="m1000 364.456h-43l-1 1-27 68-25-69h-42l44 125-52 129c14 2 28 3 42 5l30-76 29 83 45 6-51-146zm-222 248c14 1 28 2 44 4v-252h-44zm-286-10h43v-93h51v-38h-51v-67h59v-40h-102zm-163-198h39v200c15-1 29-1 43-1v-199h40v-40h-122zm-231 115-55-155h-43v272c14-2 27-4 41-5v-150l50 143c16-1 31-3 47-5v-255h-40zm87 57v39c33-3 67-5 102-7v-39c-21 1-40 2-59 4v-64h51v-38h-51v-67h59v-40h-102zm493-212h-42v240c34 1 68 3 102 5v-39l-60-3z"/></svg>