<?xml version="1.0" encoding="UTF-8" standalone="no"?>
<!-- Generator: Adobe Illustrator 19.2.1, SVG Export Plug-In . SVG Version: 6.00 Build 0)  -->

<svg
   xmlns:dc="http://purl.org/dc/elements/1.1/"
   xmlns:cc="http://creativecommons.org/ns#"
   xmlns:rdf="http://www.w3.org/1999/02/22-rdf-syntax-ns#"
   xmlns:svg="http://www.w3.org/2000/svg"
   xmlns="http://www.w3.org/2000/svg"
   xmlns:sodipodi="http://sodipodi.sourceforge.net/DTD/sodipodi-0.dtd"
   xmlns:inkscape="http://www.inkscape.org/namespaces/inkscape"
   version="1.1"
   id="layer"
   x="0px"
   y="0px"
   viewBox="0 0 700 700"
   xml:space="preserve"
   sodipodi:docname="starz-logo.svg"
   width="700"
   height="700"
   inkscape:export-filename="C:\Users\alex\sites\starz-logo-0.png"
   inkscape:export-xdpi="561.73712"
   inkscape:export-ydpi="561.73712"
   inkscape:version="0.92.3 (2405546, 2018-03-11)"><metadata
   id="metadata9"><rdf:RDF><cc:Work
       rdf:about=""><dc:format>image/svg+xml</dc:format><dc:type
         rdf:resource="http://purl.org/dc/dcmitype/StillImage" /><dc:title></dc:title></cc:Work></rdf:RDF></metadata><defs
   id="defs7" /><sodipodi:namedview
   pagecolor="#ffffff"
   bordercolor="#666666"
   borderopacity="1"
   objecttolerance="10"
   gridtolerance="10"
   guidetolerance="10"
   inkscape:pageopacity="0"
   inkscape:pageshadow="2"
   inkscape:window-width="1600"
   inkscape:window-height="838"
   id="namedview5"
   showgrid="false"
   inkscape:zoom="0.72392638"
   inkscape:cx="386.81"
   inkscape:cy="258.56684"
   inkscape:window-x="-8"
   inkscape:window-y="-8"
   inkscape:window-maximized="1"
   inkscape:current-layer="layer" />
<path
   d="m 314.8592,369.52266 14.88143,-29.76285 14.88143,29.76285 z m -46.41238,40.96077 h 25.78467 l 9.4298,-18.85964 h 52.30601 l 9.42982,18.85964 h 25.78465 L 330.03532,289.22188 Z m 22.10113,-120.81952 h -96.06623 v 21.95379 h 35.65649 v 98.71839 h 24.60592 V 311.6177 h 35.80382 z m 148.66696,53.04272 H 421.534 v -30.94159 h 17.68091 c 13.11333,0 20.33304,5.45161 20.33304,15.4708 0,10.01918 -7.36704,15.47079 -20.33304,15.47079 m 45.23364,-16.06016 c 0,-10.60854 -3.68352,-19.74368 -11.19791,-26.37401 -7.36704,-6.92503 -18.27026,-10.60855 -30.94157,-10.60855 h -45.52834 v 120.67218 h 24.60592 v -44.05492 h 17.38623 l 25.48997,44.05492 h 27.99476 L 463.67349,360.2402 c 18.12292,-8.10375 20.77506,-24.75327 20.77506,-33.59373 M 602.76327,289.66391 H 503.0135 v 21.95379 h 56.87358 l -61.73583,98.71839 H 601.4372 V 388.3823 H 540.73277 Z M 151.1635,338.87576 c -19.74369,-4.56757 -26.81605,-7.9564 -26.81605,-17.09154 0,-7.66173 7.2197,-12.52397 17.38623,-12.52397 16.06015,0 30.35222,11.1979 34.33042,14.29206 l 10.31387,-20.9224 c -12.81867,-9.72451 -27.40541,-14.88143 -44.34962,-14.88143 -24.60592,0 -41.99214,14.58674 -41.99214,35.80383 0,23.13253 14.88143,31.23628 40.66607,37.12991 21.51178,4.86224 25.48998,9.13513 25.48998,16.35483 0,8.25109 -7.36704,13.40803 -19.15432,13.40803 -14.29206,0 -26.07933,-5.45161 -39.78203,-17.97559 l -10.01918,21.51176 c 13.99738,12.08195 31.23627,18.27027 49.21185,18.27027 26.6687,0 43.76024,-14.29207 43.76024,-37.12989 -0.14737,-18.7123 -11.19791,-29.32084 -39.04532,-36.24587"
   id="path2"
   inkscape:connector-curvature="0"
   style="stroke-width:1.47340882"
   inkscape:export-filename="C:\Users\alex\sites\starz-logo-4.png"
   inkscape:export-xdpi="75.960403"
   inkscape:export-ydpi="75.960403"
   sodipodi:nodetypes="ccccccccccccccccccccccccsscccscccccccccccccccccccssccsscssccscc" />
</svg>