<svg version="1.1" id="Layer_1" xmlns="http://www.w3.org/2000/svg" xmlns:xlink="http://www.w3.org/1999/xlink" x="0px" y="0px" viewBox="0 0 120 70" style="enable-background:new 0 0 120 70;" xml:space="preserve"><div xmlns=""/>
<style type="text/css">
	.st0{fill:none;}
	.st1{fill:#000;}
</style>
<g>
	<rect class="st0" width="120" height="70"/>
	<g>
		<path class="st1" d="M78,39.3c-0.4,2-1.8,3.2-3.7,3.2c-1.3,0.1-2.5-0.6-3.2-1.7c-0.7-1.2-0.7-3.8-0.7-4.6c0-0.8,0-4.5,0.1-5.1    c-1.7-0.1-3.4-0.1-4.5-0.1c-0.1,0.7-0.1,5.8-0.1,5.8c0,2.5,0.2,4.8,1.6,6.6c1.6,2,4.1,3.2,6.7,3.1c4.7,0,7.7-3.2,8.2-7.1H78z"/>
		<path d="M71.1,29.3c0.1-0.3,1-1.8,3.2-1.8c1.5-0.1,2.9,0.9,3.4,2.3c1.6,0.2,3.2,0.4,4.8,0.7c-0.6-3.8-3.5-6.9-8.2-6.9    c-1.6,0-3.1,0.4-4.5,1.2c-1.9,1.2-2.9,2.6-3.4,4.4C67.5,29.2,69.1,29.2,71.1,29.3L71.1,29.3z M14,25.9c-1.4-1.5-3.6-2.1-6.2-2.1H0    v16.8c1.4-0.6,2.9-1.1,4.4-1.6V27.7h3.3c1.4,0,2.5,0.5,3.2,1.4c0.9,1.1,0.9,2,0.9,7.5c1.4-0.4,4.4-1.2,4.4-1.2    C16.3,30.1,16.3,28.3,14,25.9z"/>
		<path class="st1" d="M41,36.5c1.9-0.6,3.3-2.2,3.9-4.2c-5.3,0.8-10.6,1.8-15.8,3.2v10.7h4.4v-8.9h3.1l4.4,8.9h5L41,36.5z     M63.6,42.3H53.2v-5.4h8.8v-3.9h-8.8v-1.5c-1.4,0.1-2.9,0.3-4.4,0.5v14.4h14.7L63.6,42.3L63.6,42.3L63.6,42.3z M8.1,46.2    c2.3,0,4.4-0.7,5.9-2.1c1.3-1.3,1.9-2.8,2.1-4.5c-4.9,1.8-9.7,4-14.3,6.6L8.1,46.2z M20.3,46.2h4.4v-9.4c-1.5,0.4-2.9,0.9-4.4,1.4    V46.2z"/>
		<path d="M20.3,34.5c1.4-0.3,2.9-0.6,4.4-0.9v-9.7h-4.4V34.5z M63.6,23.8H48.9V30c1.5-0.1,2.9-0.3,4.4-0.4v-1.9h10.4L63.6,23.8    L63.6,23.8z"/>
		<path class="st1" d="M112.6,46.2h-3.3l-7.4-22.4h4.5l4.5,14.6l4.5-14.6h4.5L112.6,46.2z M93.9,27.7v18.5h-4.4V27.7h-5.8v-3.9h16.1    v3.9H93.9L93.9,27.7z"/>
		<path d="M33.5,27.7h4.1c1.9,0,3.2,1.1,3.2,3.2l4.4-0.5c-0.1-3.6-2.8-6.6-7.3-6.6h-8.8v8.9c1.4-0.3,2.9-0.5,4.4-0.7V27.7z"/>
	</g>
</g>
</svg>
